DataType=double
version=3
OpenSimVersion=4.5-2023-11-26-efcdfd3eb
endheader
time	EMG01_right_gast_med	EMG02_right_glut_max	EMG03_left_gast_med	EMG04_left_glut_max	EMG05_right_glut_med	EMG06_right_bic_fem	EMG07_right_rect_fem	EMG08_right_vast_lat	EMG09_right_vast_med	EMG10_right_tens_fasc_lat	EMG11_left_glut_med	EMG12_left_bic_fem	EMG13_left_rect_fem	EMG14_left_vast_lat	EMG15_left_vast_med	EMG16_left_tens_fasc_lat
2.07	0.3843647859384572	0.02296198969300974	0.05562590723125501	0.04712733356929537	0.07149518918801791	0.020991495373839	0.1098914903757122	0.01529798616547396	0.01146278718690536	0.1156692120144199	0.1217811768557438	0.09984823268656387	0.1739555034436649	0.1079384544925824	0.08667259471543177	0.1239133110568219
2.08	0.3712313071180893	0.02832432889346743	0.06029502513324022	0.04675087950771321	0.07558907876634577	0.02181723281234466	0.1107968595736914	0.01613876209086461	0.0124454971257928	0.1229841931076161	0.1268713627825837	0.1001756392544442	0.1761661368495257	0.1126054673300793	0.09190570574227028	0.1236248284602761
2.09	0.3567837551788908	0.03430868316445834	0.06505696230272361	0.0465594273139284	0.07958315041675389	0.02270238623079355	0.1111741123347245	0.01697079104240773	0.01348923671066433	0.1301944313211005	0.1318775021507629	0.1001059659232884	0.1777432243708216	0.1170369973158937	0.0970127932211151	0.1234278293838196
2.1	0.341161871501203	0.04088469397324602	0.06991835416791266	0.04654565942248501	0.08343026193725332	0.02364599830357524	0.1110175766053745	0.01778846725371579	0.01457828258394182	0.137234189135837	0.136766169586716	0.09964415807556155	0.1786920412764512	0.1211869041305696	0.1019467316473237	0.1233181902499603
2.11	0.3245208677859313	0.04801471766808015	0.07488463150586575	0.04669986447186858	0.08708369336368627	0.02464854871738218	0.1103299379801589	0.01858632077749462	0.01569653685709588	0.144041407988071	0.141503659144177	0.09879928110047421	0.1790257575460553	0.1250097798371987	0.1066607567787976	0.1232894585985242
2.12	0.3070282881724263	0.05565383658204934	0.079959969926819	0.04701012299819115	0.09049783971247603	0.02571175338101663	0.1091220354871427	0.01935903304046774	0.01682769837327023	0.1505583805611416	0.1460564443696865	0.09758428690317374	0.1787648544470778	0.1284615902399102	0.1111090014248153	0.1233330603125681
2.13	0.2888606793753561	0.06374998858091564	0.08514732439070327	0.04746252806132203	0.09362894132174916	0.02683835109893012	0.1074124464072699	0.02010146289253375	0.01795544567924405	0.1567322998652547	0.1503916896641642	0.09601572612277967	0.1779364174247233	0.1315003668827829	0.1152470562329492	0.123438513945293
2.14	0.2702001818668918	0.07224422429944198	0.0904485479817464	0.04804143694531404	0.09643583587049119	0.02803188321263575	0.1052268930934049	0.02080868470211788	0.019063630389475	0.1625156651048174	0.1544778027219693	0.09411341843589913	0.17657334161743	0.1340869396168224	0.1190325510384037	0.1235936518068047
2.15	0.2512311429282058	0.08107109918084474	0.09586459234644872	0.04872974899335664	0.09888071271393734	0.02929647086998956	0.1025975119314866	0.02147603950495027	0.02013647905608129	0.167866530894366	0.1582850126986063	0.09190009197375974	0.1747134868350507	0.1361856959129702	0.1224257503857714	0.1237848480570018
2.16	0.2321368387443814	0.09015920496515895	0.1013957849434188	0.04950920371323014	0.100929846867391	0.03063659380514287	0.09956202375613815	0.02209919944063386	0.02115880104892452	0.1727485965471649	0.1617859538109303	0.0894010018287039	0.1723988153637283	0.1377653490385354	0.1253901545858929	0.1239972540379251
2.17	0.2130963788630726	0.09943184239608084	0.1070421758216057	0.05036069272663713	0.1025542870871069	0.03205687406525513	0.09616284064005313	0.02267424478070142	0.02211619930671605	0.1771311448236379	0.1649562295143052	0.08664353681080221	0.1696745397015677	0.1387996929678001	0.1278930954612468	0.1242150413442735
2.18	0.1942818529332198	0.1088078336109021	0.1128039445619741	0.05126457879140928	0.1037304710490116	0.0335618680040043	0.09244613919697457	0.02319775191114028	0.02299528023731267	0.1809888523223072	0.167774928084711	0.08365682288162736	0.1665882996472771	0.1392683174800749	0.1299063141121702	0.1244216534063274
2.19	0.1758557668656987	0.1182024690593574	0.1186818566158701	0.05220101483410458	0.1044407419233561	0.03515586975602455	0.0884609266291905	0.02366688978944364	0.02378385861913943	0.1843015037607847	0.1702250570850288	0.0804713307833918	0.16318938056028	0.1391572527292635	0.131406506545262	0.1246000660057272
2.2	0.1579688035469539	0.1275285798943706	0.1246777574058756	0.05315025587113356	0.1046737450160875	0.0368427290424506	0.08425812268774978	0.02407952162123079	0.02447115309886074	0.187053647263881	0.172293863743918	0.07711849394995879	0.1595279782859689	0.1384595095175276	0.1323758217215756	0.1247330558620225
2.21	0.1407579322264961	0.1366977223358277	0.1307950916324164	0.05409295710860249	0.1044246896004641	0.03862568556586046	0.07988967775232941	0.02443430766494773	0.02504796772085919	0.1892342268991146	0.1739730129815098	0.07363034078534088	0.1556545117628158	0.1371754805330215	0.1328022954096178	0.1248034743729754
2.22	0.1243448808122021	0.1456214552111971	0.137039433546339	0.05501045228691154	0.1036954682891514	0.04050722151856959	0.07540774370841839	0.02473080413332247	0.02550685477037563	0.1908362240065366	0.175258605681813	0.07003914329919309	0.151618981862998	0.1353131705874284	0.1326802019311958	0.1247945215552673
2.23	0.1088349763985173	0.1542126858178193	0.1434190111778003	0.05588500720934382	0.1024946333182966	0.0424889327782046	0.07086391022255172	0.02496955228810307	0.02584225406036194	0.1918563328062571	0.1761510350453606	0.06637708259559912	0.1474703743682129	0.1328882325849245	0.1320103048914476	0.1246900142628582
2.24	0.09431635126212712	0.1623870531740009	0.1499452039280265	0.0567000442724382	0.1008372350520109	0.04457141819148105	0.06630851482296653	0.02515215128815242	0.02605060374099615	0.1922946892500635	0.1766546942028317	0.06267593117166367	0.1432561053130469	0.1299238001844405	0.1307999888892174	0.124474642915883
2.25	0.08085950440440078	0.1700643126598218	0.1566329891141288	0.0574403346507242	0.09874453214897479	0.04675418532166287	0.06179003115562959	0.02528130829744827	0.02613041782915715	0.1921546648528191	0.1767775598292264	0.05896675210056188	0.1390215071240403	0.1264501234810955	0.1290632581867726	0.124134211123241
2.26	0.06851720271384087	0.1771696824663949	0.1635013097089887	0.05809215539185941	0.09624358505084669	0.04903557073772923	0.05735453602457891	0.02536085979392156	0.02608232595602607	0.1914427293665734	0.1765306830247041	0.05527961539856639	0.1348093535961044	0.1225040258506103	0.1268205943435978	0.1236558522760023
2.27	0.05732470089464292	0.1836351098696455	0.1705733336751217	0.05864340897991659	0.09336674539931351	0.05141267351270217	0.05304525259123055	0.0253957589854282	0.02590907144719671	0.1901683786166556	0.1759276210968336	0.05164333202312495	0.1306594214562635	0.1181282070135522	0.1240986705361533	0.1230282177018091
2.28	0.04730025517179897	0.1894004142850598	0.1778765756670874	0.05908370330205268	0.09015105464644828	0.05388130155335212	0.04890216478914171	0.02539202583834503	0.02561546502787817	0.1883441178070174	0.1749838434294623	0.04808520621833266	0.1266080872255506	0.1133704205408724	0.1209299247776183	0.1222416332514809
2.29	0.03844590230397989	0.1944142658761114	0.1854428532547333	0.05940439106126613	0.08663756604847	0.05643593110430003	0.04496169695766999	0.02535665838110918	0.02520829325143326	0.1859854865054095	0.1737161424788002	0.04463080736547848	0.1226879604299864	0.108282555130395	0.117351998986157	0.1212882238494019
2.3	0.03074847262600804	0.1986349645449874	0.1933080495018001	0.05959856973795956	0.08287060534725088	0.05906968019344616	0.04125645294704641	0.0252975063161951	0.02469618294150199	0.1831111086168513	0.1721420780183337	0.04130376281721457	0.1189275564010536	0.102919649398133	0.1134070572770451	0.1201620064357447
2.31	0.02418080362531152	0.2020309939263774	0.2015116509809433	0.0596610455813279	0.07889698659558869	0.06177429718199674	0.03781500999890094	0.02522311015768809	0.02408942513252943	0.1797427482902784	0.1702794796213581	0.03812557320656591	0.1153510127580144	0.09733887006762523	0.1091410041398673	0.1188589507724667
2.32	0.01870311886973896	0.2045813370412027	0.2100960289535315	0.05958826698522084	0.07476520070075966	0.06454016602220576	0.03466176382604959	0.02514251083320326	0.0233997637977185	0.1759053514469484	0.1681460288908297	0.03511545162990189	0.1119778543748765	0.09159848283148	0.1046026291466938	0.117377006580138
2.33	0.01426453606350268	0.2062755530369535	0.2191054382327457	0.05937823384097494	0.07052459499559986	0.06735633010771762	0.03181682215247572	0.02506503588850947	0.02264015579352531	0.1716270533966658	0.1657589384044233	0.03229018814556812	0.1088228139067069	0.08575684332367031	0.09984270798206019	0.1157160957681626
2.34	0.0108046676760117	0.2071136257737628	0.2285847270453433	0.05903039030179512	0.06622456208124525	0.07021053658738406	0.0292959446163033	0.02500006927448625	0.02182450896263562	0.1669391356667182	0.1631347381467715	0.02966404115897704	0.1058957178848206	0.07987143260194357	0.09491308952234649	0.1138780700109822
2.35	0.008255277828516159	0.2071056029606634	0.2385777776055744	0.0585455086673707	0.06191375525387109	0.07308930280516589	0.02711052747161569	0.02495681234142608	0.02096740549623774	0.1618759187584621	0.1602891724961367	0.02724865731273078	0.1032014495186362	0.07399795768869902	0.0898657960698154	0.1118666358622299
2.36	0.00654195985354927	0.2062710495359883	0.249125720547707	0.05792557146461481	0.05763934617208684	0.07597800618766186	0.02526763187764522	0.0249440440609369	0.02008381764506456	0.1564745812363848	0.1572372024968678	0.02505302138060943	0.100739997883036	0.06818953356384619	0.0847521598849144	0.1096872513651594
2.37	0.005585800222936206	0.2046383428133171	0.260264979540203	0.05717365743769237	0.05344633825408015	0.07886099821449481	0.0237700546972652	0.02496988849718185	0.01918882267856141	0.1507748990984745	0.1539931002053953	0.02308343733563907	0.09850660036040569	0.0624959589735211	0.07962201491766376	0.1073469992963322
2.38	0.005304996349566369	0.2022438398327609	0.2720252074744325	0.05629383561454666	0.04937694694397488	0.0817217420291896	0.02261644073609295	0.0250415971248	0.01829732358746941	0.1448189034677689	0.1505706147918627	0.02134354121492088	0.09649198225751063	0.05696309477878705	0.0745229586955546	0.1048544424808733
2.39	0.005616398022431772	0.1991309485025743	0.2844271804568166	0.05529107018377126	0.04547005569720725	0.08454297244681959	0.02180143535572475	0.02516535283233357	0.01742378143373793	0.138650460111942	0.1469831839168934	0.01983434572233481	0.09468269457036137	0.05163235038250552	0.06949969590115868	0.1022194659677982
2.4	0.006436945082617343	0.1953491337598448	0.2974807256669036	0.0541711374779166	0.04176075425580105	0.08730687742881439	0.02131587640055275	0.02534610151988415	0.01658196452085935	0.1323147803529746	0.143244159742657	0.01855431582994343	0.09306154745437005	0.04654028089309958	0.06459347225223755	0.09945310960646307
